<svg width="222" height="44" viewBox="0 0 222 44" fill="none" xmlns="http://www.w3.org/2000/svg">
<mask id="mask0_44_33" style="mask-type:luminance" maskUnits="userSpaceOnUse" x="1" y="2" width="42" height="40">
<path d="M22 39.0834C32.1255 39.0834 40.3333 31.4351 40.3333 22C40.3333 12.5649 32.1255 4.91669 22 4.91669C11.8745 4.91669 3.66663 12.5649 3.66663 22C3.66663 31.4351 11.8745 39.0834 22 39.0834Z" fill="white" stroke="white" stroke-width="4" stroke-linejoin="round"/>
<path d="M22 16.875C22.7293 16.875 23.4288 16.605 23.9445 16.1245C24.4603 15.6439 24.75 14.9921 24.75 14.3125C24.75 13.6329 24.4603 12.9811 23.9445 12.5005C23.4288 12.02 22.7293 11.75 22 11.75C21.2707 11.75 20.5712 12.02 20.0555 12.5005C19.5397 12.9811 19.25 13.6329 19.25 14.3125C19.25 14.9921 19.5397 15.6439 20.0555 16.1245C20.5712 16.605 21.2707 16.875 22 16.875ZM22 32.25C22.7293 32.25 23.4288 31.98 23.9445 31.4995C24.4603 31.0189 24.75 30.3671 24.75 29.6875C24.75 29.0079 24.4603 28.3561 23.9445 27.8755C23.4288 27.395 22.7293 27.125 22 27.125C21.2707 27.125 20.5712 27.395 20.0555 27.8755C19.5397 28.3561 19.25 29.0079 19.25 29.6875C19.25 30.3671 19.5397 31.0189 20.0555 31.4995C20.5712 31.98 21.2707 32.25 22 32.25ZM13.75 24.5625C14.4793 24.5625 15.1788 24.2925 15.6945 23.812C16.2103 23.3314 16.5 22.6796 16.5 22C16.5 21.3204 16.2103 20.6686 15.6945 20.188C15.1788 19.7075 14.4793 19.4375 13.75 19.4375C13.0207 19.4375 12.3212 19.7075 11.8055 20.188C11.2897 20.6686 11 21.3204 11 22C11 22.6796 11.2897 23.3314 11.8055 23.812C12.3212 24.2925 13.0207 24.5625 13.75 24.5625ZM30.25 24.5625C30.9793 24.5625 31.6788 24.2925 32.1945 23.812C32.7103 23.3314 33 22.6796 33 22C33 21.3204 32.7103 20.6686 32.1945 20.188C31.6788 19.7075 30.9793 19.4375 30.25 19.4375C29.5207 19.4375 28.8212 19.7075 28.3055 20.188C27.7897 20.6686 27.5 21.3204 27.5 22C27.5 22.6796 27.7897 23.3314 28.3055 23.812C28.8212 24.2925 29.5207 24.5625 30.25 24.5625Z" fill="black" stroke="black" stroke-width="4" stroke-linejoin="round"/>
<path d="M22 39.0834H40.3333" stroke="white" stroke-width="4" stroke-linecap="round"/>
</mask>
<g mask="url(#mask0_44_33)">
<path d="M0 1.5H44V42.5H0V1.5Z" fill="#D62D30"/>
</g>
<path d="M59.88 20.6C59.88 21.544 60.088 22.352 60.504 23.024C60.936 23.68 61.504 24.184 62.208 24.536C62.912 24.872 63.688 25.04 64.536 25.04C65.336 25.04 66.032 24.936 66.624 24.728C67.216 24.52 67.744 24.256 68.208 23.936C68.672 23.6 69.08 23.248 69.432 22.88V27.776C68.776 28.256 68.048 28.656 67.248 28.976C66.464 29.28 65.456 29.432 64.224 29.432C62.832 29.432 61.552 29.224 60.384 28.808C59.216 28.392 58.216 27.792 57.384 27.008C56.552 26.224 55.904 25.296 55.44 24.224C54.992 23.136 54.768 21.928 54.768 20.6C54.768 19.272 54.992 18.072 55.44 17C55.904 15.912 56.552 14.976 57.384 14.192C58.216 13.408 59.216 12.808 60.384 12.392C61.552 11.976 62.832 11.768 64.224 11.768C65.456 11.768 66.464 11.92 67.248 12.224C68.048 12.528 68.776 12.928 69.432 13.424V18.32C69.08 17.952 68.672 17.608 68.208 17.288C67.744 16.952 67.216 16.68 66.624 16.472C66.032 16.264 65.336 16.16 64.536 16.16C63.688 16.16 62.912 16.336 62.208 16.688C61.504 17.024 60.936 17.528 60.504 18.2C60.088 18.856 59.88 19.656 59.88 20.6ZM71.6659 23.48C71.6659 22.296 71.9459 21.272 72.5059 20.408C73.0659 19.544 73.8339 18.88 74.8099 18.416C75.8019 17.936 76.9139 17.696 78.1459 17.696C79.3939 17.696 80.5059 17.936 81.4819 18.416C82.4579 18.88 83.2259 19.544 83.7859 20.408C84.3619 21.272 84.6499 22.296 84.6499 23.48C84.6499 24.648 84.3619 25.664 83.7859 26.528C83.2259 27.392 82.4579 28.064 81.4819 28.544C80.5059 29.008 79.3939 29.24 78.1459 29.24C76.9139 29.24 75.8019 29.008 74.8099 28.544C73.8339 28.064 73.0659 27.392 72.5059 26.528C71.9459 25.664 71.6659 24.648 71.6659 23.48ZM75.9379 23.48C75.9379 23.992 76.0339 24.432 76.2259 24.8C76.4339 25.152 76.7059 25.424 77.0419 25.616C77.3779 25.792 77.7459 25.88 78.1459 25.88C78.5459 25.88 78.9139 25.792 79.2499 25.616C79.5859 25.424 79.8579 25.152 80.0659 24.8C80.2739 24.432 80.3779 23.992 80.3779 23.48C80.3779 22.968 80.2739 22.536 80.0659 22.184C79.8579 21.816 79.5859 21.536 79.2499 21.344C78.9139 21.152 78.5459 21.056 78.1459 21.056C77.7459 21.056 77.3779 21.152 77.0419 21.344C76.7059 21.536 76.4339 21.816 76.2259 22.184C76.0339 22.536 75.9379 22.968 75.9379 23.48ZM95.0788 10.28H99.2308V29H95.0788V10.28ZM86.1268 23.48C86.1268 22.216 86.3748 21.16 86.8708 20.312C87.3828 19.464 88.0308 18.824 88.8148 18.392C89.6148 17.944 90.4468 17.72 91.3108 17.72C92.2388 17.72 93.0628 17.952 93.7828 18.416C94.5028 18.88 95.0708 19.544 95.4868 20.408C95.9188 21.256 96.1348 22.28 96.1348 23.48C96.1348 24.664 95.9188 25.688 95.4868 26.552C95.0708 27.416 94.5028 28.08 93.7828 28.544C93.0628 29.008 92.2388 29.24 91.3108 29.24C90.4468 29.24 89.6148 29.024 88.8148 28.592C88.0308 28.144 87.3828 27.496 86.8708 26.648C86.3748 25.784 86.1268 24.728 86.1268 23.48ZM90.4948 23.48C90.4948 23.96 90.5988 24.392 90.8068 24.776C91.0148 25.16 91.2948 25.456 91.6468 25.664C91.9988 25.872 92.3828 25.976 92.7988 25.976C93.1668 25.976 93.5268 25.88 93.8788 25.688C94.2308 25.48 94.5188 25.192 94.7428 24.824C94.9668 24.456 95.0788 24.008 95.0788 23.48C95.0788 22.952 94.9668 22.504 94.7428 22.136C94.5188 21.768 94.2308 21.488 93.8788 21.296C93.5268 21.088 93.1668 20.984 92.7988 20.984C92.3828 20.984 91.9988 21.088 91.6468 21.296C91.2948 21.504 91.0148 21.8 90.8068 22.184C90.5988 22.552 90.4948 22.984 90.4948 23.48ZM107.843 29.24C106.483 29.24 105.307 29.008 104.315 28.544C103.339 28.064 102.587 27.4 102.059 26.552C101.531 25.688 101.267 24.664 101.267 23.48C101.267 22.28 101.523 21.256 102.035 20.408C102.547 19.544 103.283 18.88 104.243 18.416C105.203 17.952 106.355 17.72 107.699 17.72C109.043 17.72 110.171 17.936 111.083 18.368C111.995 18.8 112.691 19.432 113.171 20.264C113.651 21.08 113.891 22.088 113.891 23.288C113.891 23.48 113.883 23.672 113.867 23.864C113.867 24.04 113.859 24.2 113.843 24.344H103.547V22.208H110.051L109.163 23.312C109.243 23.184 109.315 23.04 109.379 22.88C109.443 22.72 109.475 22.584 109.475 22.472C109.475 22.024 109.395 21.648 109.235 21.344C109.091 21.024 108.875 20.784 108.587 20.624C108.315 20.448 107.987 20.36 107.603 20.36C107.123 20.36 106.723 20.472 106.403 20.696C106.083 20.92 105.843 21.264 105.683 21.728C105.523 22.176 105.443 22.752 105.443 23.456C105.427 24.08 105.507 24.608 105.683 25.04C105.859 25.472 106.115 25.808 106.451 26.048C106.787 26.272 107.203 26.384 107.699 26.384C108.307 26.384 108.819 26.28 109.235 26.072C109.667 25.848 110.003 25.528 110.243 25.112L113.987 25.856C113.395 26.992 112.587 27.84 111.563 28.4C110.555 28.96 109.315 29.24 107.843 29.24ZM120.079 17.96V29H116.023V17.96H120.079ZM123.223 22.208C123.047 22.016 122.847 21.864 122.623 21.752C122.415 21.624 122.151 21.56 121.831 21.56C121.511 21.56 121.215 21.648 120.943 21.824C120.671 22 120.455 22.264 120.295 22.616C120.151 22.968 120.079 23.408 120.079 23.936L119.215 22.28C119.215 21.4 119.391 20.616 119.743 19.928C120.095 19.24 120.559 18.696 121.135 18.296C121.727 17.88 122.343 17.672 122.983 17.672C123.383 17.672 123.767 17.768 124.135 17.96C124.503 18.136 124.775 18.36 124.951 18.632L123.223 22.208ZM129.959 16.16V12.2H137.471V16.16H129.959ZM129.959 22.688V19.016H137.231V22.688H129.959ZM126.791 12.2H131.255V29H126.791V12.2ZM139.759 13.952C139.759 13.312 139.983 12.792 140.431 12.392C140.895 11.992 141.447 11.792 142.087 11.792C142.743 11.792 143.295 11.992 143.743 12.392C144.207 12.792 144.439 13.312 144.439 13.952C144.439 14.576 144.207 15.088 143.743 15.488C143.295 15.888 142.743 16.088 142.087 16.088C141.447 16.088 140.895 15.888 140.431 15.488C139.983 15.088 139.759 14.576 139.759 13.952ZM140.095 17.96H144.079V29H140.095V17.96ZM146.797 10.28H150.949V29H146.797V10.28ZM170.922 21.848V29H166.77V22.28C166.77 21.704 166.674 21.264 166.482 20.96C166.306 20.64 166.002 20.48 165.57 20.48C165.314 20.48 165.082 20.544 164.874 20.672C164.666 20.8 164.506 21 164.394 21.272C164.282 21.528 164.226 21.864 164.226 22.28V29H160.074V22.28C160.074 21.704 159.978 21.264 159.786 20.96C159.61 20.64 159.306 20.48 158.874 20.48C158.618 20.48 158.386 20.544 158.178 20.672C157.97 20.8 157.81 21 157.698 21.272C157.586 21.528 157.53 21.864 157.53 22.28V29H153.57V17.96H157.53V19.616C157.834 19.024 158.25 18.56 158.778 18.224C159.322 17.872 159.986 17.696 160.77 17.696C161.65 17.696 162.338 17.848 162.834 18.152C163.33 18.44 163.69 18.872 163.914 19.448C164.33 18.904 164.834 18.48 165.426 18.176C166.034 17.856 166.714 17.696 167.466 17.696C168.362 17.696 169.058 17.864 169.554 18.2C170.05 18.52 170.402 18.992 170.61 19.616C170.818 20.224 170.922 20.968 170.922 21.848ZM179.539 29.24C178.179 29.24 177.003 29.008 176.011 28.544C175.035 28.064 174.283 27.4 173.755 26.552C173.227 25.688 172.963 24.664 172.963 23.48C172.963 22.28 173.219 21.256 173.731 20.408C174.243 19.544 174.979 18.88 175.939 18.416C176.899 17.952 178.051 17.72 179.395 17.72C180.739 17.72 181.867 17.936 182.779 18.368C183.691 18.8 184.387 19.432 184.867 20.264C185.347 21.08 185.587 22.088 185.587 23.288C185.587 23.48 185.579 23.672 185.563 23.864C185.563 24.04 185.555 24.2 185.539 24.344H175.243V22.208H181.747L180.859 23.312C180.939 23.184 181.011 23.04 181.075 22.88C181.139 22.72 181.171 22.584 181.171 22.472C181.171 22.024 181.091 21.648 180.931 21.344C180.787 21.024 180.571 20.784 180.283 20.624C180.011 20.448 179.683 20.36 179.299 20.36C178.819 20.36 178.419 20.472 178.099 20.696C177.779 20.92 177.539 21.264 177.379 21.728C177.219 22.176 177.139 22.752 177.139 23.456C177.123 24.08 177.203 24.608 177.379 25.04C177.555 25.472 177.811 25.808 178.147 26.048C178.483 26.272 178.899 26.384 179.395 26.384C180.003 26.384 180.515 26.28 180.931 26.072C181.363 25.848 181.699 25.528 181.939 25.112L185.683 25.856C185.091 26.992 184.283 27.84 183.259 28.4C182.251 28.96 181.011 29.24 179.539 29.24ZM188.342 24.8C189.014 25.312 189.598 25.696 190.094 25.952C190.59 26.208 191.014 26.376 191.366 26.456C191.718 26.536 191.99 26.576 192.182 26.576C192.486 26.576 192.71 26.512 192.854 26.384C192.998 26.256 193.07 26.08 193.07 25.856C193.07 25.664 193.006 25.504 192.878 25.376C192.766 25.232 192.542 25.088 192.206 24.944C191.886 24.8 191.406 24.624 190.766 24.416C190.238 24.24 189.734 24.024 189.254 23.768C188.774 23.496 188.382 23.136 188.078 22.688C187.79 22.224 187.646 21.632 187.646 20.912C187.646 20.224 187.83 19.648 188.198 19.184C188.566 18.704 189.07 18.344 189.71 18.104C190.35 17.848 191.094 17.72 191.942 17.72C192.598 17.72 193.206 17.792 193.766 17.936C194.342 18.064 194.886 18.24 195.398 18.464C195.91 18.672 196.414 18.92 196.91 19.208L195.686 21.968C195.174 21.52 194.598 21.16 193.958 20.888C193.334 20.6 192.782 20.456 192.302 20.456C191.998 20.456 191.774 20.512 191.63 20.624C191.502 20.736 191.438 20.872 191.438 21.032C191.438 21.256 191.534 21.44 191.726 21.584C191.918 21.712 192.206 21.84 192.59 21.968C192.974 22.096 193.462 22.272 194.054 22.496C194.614 22.704 195.126 22.944 195.59 23.216C196.07 23.472 196.454 23.808 196.742 24.224C197.046 24.64 197.198 25.192 197.198 25.88C197.198 27.128 196.822 28.048 196.07 28.64C195.334 29.232 194.286 29.528 192.926 29.528C192.11 29.528 191.342 29.448 190.622 29.288C189.918 29.128 189.254 28.904 188.63 28.616C188.006 28.328 187.406 28 186.83 27.632L188.342 24.8Z" fill="#D62D30"/>
</svg>
